<svg width="217" height="31" viewBox="0 0 217 31" fill="none" xmlns="http://www.w3.org/2000/svg">
<path d="M38.7578 23.4447L42.0528 7.02344H44.405L41.5134 21.4062H50.4511L50.0523 23.4492H38.7623L38.7578 23.4447Z" fill="white"/>
<path d="M59.461 23.6307C57.9563 23.6307 56.7053 23.3323 55.7082 22.7402C54.7111 22.1436 54.0177 21.3074 53.6279 20.218C53.2336 19.1332 53.1883 17.845 53.4874 16.3579L55.3457 7.01953H57.6753L55.817 16.3353C55.4726 18.0575 55.6448 19.3547 56.3337 20.2316C57.0226 21.1085 58.1466 21.5469 59.6967 21.5469C61.156 21.5469 62.3299 21.1266 63.2273 20.2904C64.1202 19.4541 64.7411 18.1298 65.0855 16.3127L66.9664 7.01953H69.2507L67.3698 16.4754C66.8848 18.8665 65.9829 20.661 64.664 21.8498C63.3451 23.0385 61.6138 23.6307 59.4655 23.6307H59.461Z" fill="white"/>
<path d="M70.5202 23.4447L73.8151 7.02344H75.7187L80.6589 19.4581L79.6482 19.4355L89.3155 7.02344H91.3369L88.0419 23.4447H85.7849L88.3955 10.4948L88.9847 10.54L80.396 21.4514H79.3128L74.8666 10.4948L75.3606 10.5671L72.7727 23.4492H70.5156L70.5202 23.4447Z" fill="white"/>
<path d="M95.7394 21.4017H105.361L104.963 23.4447H92.9883L96.2833 7.02344H107.904L107.505 9.06649H98.214L95.7439 21.4062L95.7394 21.4017ZM97.0084 14.1063H105.479L105.08 16.0997H96.6096L97.0084 14.1063Z" fill="white"/>
<path d="M108.75 23.4447L112.045 7.02344H113.976L121.88 20.5835L121.173 20.4886L123.856 7.02344H126.208L122.913 23.4447H120.983L113.078 9.88462L113.785 9.97954L111.102 23.4447H108.75Z" fill="white"/>
<path d="M130.249 23.4453L132.674 11.3136H127.852L128.722 7.01953H143.918L143.048 11.3136H138.226L135.801 23.4453H130.249Z" fill="white"/>
<path d="M142.059 23.4447L145.354 7.02344H152.741C154.921 7.02344 156.607 7.49804 157.799 8.44273C158.991 9.38742 159.589 10.7163 159.589 12.4204C159.589 13.799 159.25 15.0013 158.565 16.0319C157.881 17.0624 156.92 17.8715 155.669 18.4501C154.423 19.0286 152.954 19.3179 151.259 19.3179H145.943L148.907 16.9946L147.615 23.4447H142.063H142.059ZM148.766 17.65L146.813 15.1414H151.54C152.311 15.1414 152.904 14.9516 153.33 14.5674C153.752 14.1832 153.965 13.6498 153.965 12.9582C153.965 12.3661 153.779 11.9367 153.412 11.6791C153.045 11.4214 152.537 11.2904 151.894 11.2904H147.588L150.552 8.70941L148.762 17.65H148.766ZM152.129 23.4447L148.744 17.4602H154.459L157.894 23.4447H152.129Z" fill="white"/>
<path d="M157.797 23.4447L168.289 7.02344H173.746L177.653 23.4447H172.123L169.463 9.57726H171.629L163.653 23.4447H157.797ZM162.642 20.5835L164.854 16.5969H172.432L173.043 20.5835H162.646H162.642Z" fill="white"/>
<path d="M187.674 23.8201C185.979 23.8201 184.497 23.5127 183.228 22.8934C181.959 22.2742 180.975 21.4154 180.277 20.3125C179.579 19.2096 179.23 17.9304 179.23 16.475C179.23 15.0195 179.484 13.7133 179.996 12.5109C180.504 11.3086 181.225 10.2645 182.149 9.3921C183.074 8.51973 184.171 7.84173 185.444 7.3626C186.713 6.888 188.109 6.64844 189.632 6.64844C191.155 6.64844 192.619 6.92868 193.843 7.49368C195.066 8.05869 195.977 8.87229 196.571 9.9345L192.574 13.0533C192.229 12.4431 191.78 11.9685 191.232 11.634C190.684 11.2996 190.031 11.1278 189.279 11.1278C188.621 11.1278 188.019 11.2498 187.479 11.4894C186.94 11.7335 186.473 12.077 186.079 12.52C185.684 12.9674 185.381 13.4918 185.163 14.102C184.941 14.7122 184.832 15.3857 184.832 16.1179C184.832 16.7598 184.973 17.3202 185.254 17.8084C185.535 18.292 185.934 18.6672 186.441 18.9339C186.949 19.2006 187.543 19.3317 188.218 19.3317C188.893 19.3317 189.492 19.1825 190.112 18.8842C190.733 18.5859 191.323 18.1022 191.889 17.4287L195.161 20.5475C194.155 21.768 193.04 22.6177 191.808 23.0923C190.575 23.5669 189.201 23.8065 187.679 23.8065L187.674 23.8201Z" fill="white"/>
<path d="M195.816 23.444L199.111 7.02271H204.568L201.273 23.444H195.816ZM201.486 20.063L202.311 13.8434L209.649 7.01367H216.026L207.582 14.6616L203.816 17.8979L201.486 20.0585V20.063ZM206.943 23.444L202.968 17.0617L207.084 13.3553L213.13 23.444H206.943Z" fill="white"/>
<path d="M15.5395 13.8898L17.4386 5.29721C17.5428 4.81808 16.872 4.67344 16.5548 5.10284L6.11239 19.1918C5.66369 19.7975 5.98548 20.4936 6.71065 20.4981L16.0698 20.5614L16.446 24.2316C16.4732 24.5074 16.8856 24.5345 17.0714 24.2678L23.4937 15.2096C23.9152 14.613 23.5934 13.9395 22.8864 13.935L15.535 13.8853L15.5395 13.8898Z" fill="white"/>
<path d="M29.5453 18.5584C27.3154 30.889 11.3436 34.6678 3.46201 24.9949C-1.44192 19.1143 -1.12466 9.89346 4.34127 4.51913C9.46274 -0.909427 18.5998 -1.56031 24.3422 3.1812C27.1704 5.40054 29.1419 8.66853 29.7311 12.1987C29.7492 12.3388 29.5498 12.375 29.5181 12.2394C27.0661 1.13363 13.1475 -2.87112 5.3701 5.49546C3.09036 7.9408 1.75334 11.2314 1.7488 14.5672C1.57658 21.2659 6.92467 27.2685 13.5101 28.2041C20.2632 29.3974 27.116 25.0311 29.3323 18.5041C29.364 18.3776 29.5725 18.4318 29.5453 18.5584Z" fill="white"/>
<path d="M29.6204 13.8763C30.539 13.8763 31.2837 13.1336 31.2837 12.2174C31.2837 11.3013 30.539 10.5586 29.6204 10.5586C28.7017 10.5586 27.957 11.3013 27.957 12.2174C27.957 13.1336 28.7017 13.8763 29.6204 13.8763Z" fill="white"/>
<path d="M22.8912 13.9384L15.5398 13.8887C15.5398 13.8887 14.2255 19.3263 16.0701 20.5602L16.4463 24.2305C16.4735 24.5062 16.8859 24.5334 17.0717 24.2667L23.494 15.2085C23.9155 14.6119 23.5937 13.9384 22.8866 13.9339L22.8912 13.9384Z" fill="white"/>
</svg>
