<svg width="31" height="31" viewBox="0 0 31 31" fill="none" xmlns="http://www.w3.org/2000/svg">
<path d="M15.5395 13.8898L17.4386 5.29721C17.5428 4.81808 16.872 4.67344 16.5548 5.10284L6.11239 19.1918C5.66369 19.7975 5.98548 20.4936 6.71065 20.4981L16.0698 20.5614L16.446 24.2316C16.4732 24.5074 16.8856 24.5345 17.0714 24.2678L23.4937 15.2096C23.9152 14.613 23.5934 13.9395 22.8864 13.935L15.535 13.8853L15.5395 13.8898Z" fill="#28348B"/>
<path d="M29.5453 18.5584C27.3154 30.889 11.3436 34.6678 3.46201 24.9949C-1.44192 19.1143 -1.12466 9.89346 4.34127 4.51913C9.46274 -0.909427 18.5998 -1.56031 24.3422 3.1812C27.1704 5.40054 29.1419 8.66853 29.7311 12.1987C29.7492 12.3388 29.5498 12.375 29.5181 12.2394C27.0661 1.13363 13.1475 -2.87112 5.3701 5.49546C3.09036 7.9408 1.75334 11.2314 1.7488 14.5672C1.57658 21.2659 6.92467 27.2685 13.5101 28.2041C20.2632 29.3974 27.116 25.0311 29.3323 18.5041C29.364 18.3776 29.5725 18.4318 29.5453 18.5584Z" fill="#28348B"/>
<path d="M29.6204 13.8763C30.539 13.8763 31.2837 13.1336 31.2837 12.2174C31.2837 11.3013 30.539 10.5586 29.6204 10.5586C28.7017 10.5586 27.957 11.3013 27.957 12.2174C27.957 13.1336 28.7017 13.8763 29.6204 13.8763Z" fill="#28348B"/>
<path d="M22.8912 13.9384L15.5398 13.8887C15.5398 13.8887 14.2255 19.3263 16.0701 20.5602L16.4463 24.2305C16.4735 24.5062 16.8859 24.5334 17.0717 24.2667L23.494 15.2085C23.9155 14.6119 23.5937 13.9384 22.8866 13.9339L22.8912 13.9384Z" fill="#28348B"/>
</svg>
